<svg width="30" height="30" viewBox="0 0 30 30" fill="none" xmlns="http://www.w3.org/2000/svg">
<g id="user">
<path id="Vector" d="M19.6375 15.8875C20.863 14.9233 21.7575 13.6012 22.1965 12.1049C22.6356 10.6087 22.5974 9.01283 22.0872 7.53934C21.5771 6.06584 20.6203 4.78799 19.3501 3.88357C18.0799 2.97915 16.5593 2.49313 15 2.49313C13.4407 2.49313 11.9201 2.97915 10.6499 3.88357C9.37968 4.78799 8.42293 6.06584 7.91276 7.53934C7.4026 9.01283 7.36439 10.6087 7.80345 12.1049C8.24251 13.6012 9.13701 14.9233 10.3625 15.8875C8.26259 16.7288 6.43035 18.1242 5.06111 19.9249C3.69187 21.7256 2.83695 23.8641 2.5875 26.1125C2.56944 26.2767 2.58389 26.4428 2.63003 26.6013C2.67616 26.7599 2.75308 26.9078 2.85639 27.0367C3.06502 27.2969 3.36848 27.4635 3.7 27.5C4.03152 27.5365 4.36395 27.4397 4.62415 27.2311C4.88436 27.0225 5.05103 26.719 5.0875 26.3875C5.36198 23.944 6.5271 21.6873 8.36027 20.0485C10.1934 18.4097 12.5661 17.5038 15.025 17.5038C17.4839 17.5038 19.8566 18.4097 21.6897 20.0485C23.5229 21.6873 24.688 23.944 24.9625 26.3875C24.9965 26.6947 25.143 26.9783 25.3739 27.1838C25.6047 27.3892 25.9035 27.5019 26.2125 27.5H26.35C26.6777 27.4623 26.9772 27.2966 27.1832 27.0391C27.3892 26.7815 27.4851 26.453 27.45 26.125C27.1994 23.8703 26.3398 21.7262 24.9636 19.9228C23.5873 18.1193 21.7461 16.7244 19.6375 15.8875V15.8875ZM15 15C14.0111 15 13.0444 14.7068 12.2221 14.1574C11.3999 13.6079 10.759 12.8271 10.3806 11.9134C10.0022 10.9998 9.90314 9.99446 10.0961 9.02455C10.289 8.05465 10.7652 7.16373 11.4645 6.46447C12.1637 5.76521 13.0546 5.289 14.0245 5.09608C14.9944 4.90315 15.9998 5.00217 16.9134 5.38061C17.827 5.75904 18.6079 6.39991 19.1573 7.22215C19.7068 8.0444 20 9.0111 20 10C20 11.3261 19.4732 12.5979 18.5355 13.5355C17.5978 14.4732 16.3261 15 15 15Z" fill="white"/>
</g>
</svg>
